<svg xmlns="http://www.w3.org/2000/svg" width="24.363" height="24.574" viewBox="0 0 24.363 24.574"><defs><style>.a{fill:#4b4b4b;}</style></defs><g transform="translate(-22.492 0)"><path class="a" d="M46.7,19.1a2.134,2.134,0,0,0-.579-.811,10.412,10.412,0,0,0-1.127-.818c-.671-.436-1.473-.9-2.19-1.289-.359-.193-.7-.366-.988-.5a5.768,5.768,0,0,0-.762-.314,2.02,2.02,0,0,0-.582-.084,2.663,2.663,0,0,0-1.528.523,2.878,2.878,0,0,0-.992,1.23,1.373,1.373,0,0,1-.074.155,20.824,20.824,0,0,1-4.41-3.878,24.432,24.432,0,0,1-2.943-3.8,9.257,9.257,0,0,1-.463-.86,1.607,1.607,0,0,1,.18-.041,3.184,3.184,0,0,0,1.6-.788,2.517,2.517,0,0,0,.521-.668,1.793,1.793,0,0,0,.216-.832,1.57,1.57,0,0,0-.019-.242,3.521,3.521,0,0,0-.117-.469,22.306,22.306,0,0,0-.945-2.371c-.2-.439-.411-.872-.616-1.258a8.646,8.646,0,0,0-.6-.992A2.319,2.319,0,0,0,29.214.2,3.246,3.246,0,0,0,28.066,0a4.157,4.157,0,0,0-.9.1,3.375,3.375,0,0,0-.36.1,1.968,1.968,0,0,0-.316.136h0L26.463.295l.007.051c-.04.021-.126.066-.232.124A8.527,8.527,0,0,0,24.033,2.2a5.74,5.74,0,0,0-1.541,3.881,6.263,6.263,0,0,0,.1,1.113A20.994,20.994,0,0,0,27.969,17.57,23.6,23.6,0,0,0,38.175,24.2a7.528,7.528,0,0,0,2.3.371,7.214,7.214,0,0,0,4.068-1.293,8.6,8.6,0,0,0,1.14-.927c.139-.134.252-.253.338-.345s.149-.164.161-.176a1.9,1.9,0,0,0,.246-.341,3.2,3.2,0,0,0,.429-1.547A2.269,2.269,0,0,0,46.7,19.1ZM24.054,6.079a4.163,4.163,0,0,1,.446-1.9,5.539,5.539,0,0,1,1.6-1.864,7.435,7.435,0,0,1,.755-.509c.1-.061.194-.11.266-.149l.171-.091a1.458,1.458,0,0,1,.272-.08,2.517,2.517,0,0,1,.5-.052,1.558,1.558,0,0,1,.551.088.756.756,0,0,1,.362.268,8.255,8.255,0,0,1,.571.976c.328.634.681,1.413.958,2.093.138.339.258.654.346.91a3.9,3.9,0,0,1,.151.515l0,.037a.453.453,0,0,1-.06.206,1.232,1.232,0,0,1-.39.414,1.581,1.581,0,0,1-.611.255,2.859,2.859,0,0,0-.722.217,1.52,1.52,0,0,0-.672.57,1.039,1.039,0,0,0-.159.537l0,.081.024.12c.035.118.634,2,3.848,5.511s5.13,4.37,5.251,4.422l.132.044a1.133,1.133,0,0,0,.265.029,1.4,1.4,0,0,0,.816-.271,2.056,2.056,0,0,0,.677-.925,1.433,1.433,0,0,1,.489-.6,1.049,1.049,0,0,1,.567-.219l.1.013a2.989,2.989,0,0,1,.291.116,24.868,24.868,0,0,1,2.214,1.175c.417.244.824.5,1.17.726a8.142,8.142,0,0,1,.8.584.683.683,0,0,1,.191.267.927.927,0,0,1,.061.348,1.781,1.781,0,0,1-.131.631,1.827,1.827,0,0,1-.113.238L45,20.882,45,20.894c-.046.05-.091.1-.164.181a7.054,7.054,0,0,1-1.524,1.245,5.46,5.46,0,0,1-2.834.816,5.825,5.825,0,0,1-1.784-.291,22.026,22.026,0,0,1-9.525-6.2,19.6,19.6,0,0,1-5.029-9.687A4.931,4.931,0,0,1,24.054,6.079Z" transform="translate(0)"/></g></svg>